<?xml version="1.0" encoding="UTF-8" standalone="no"?>
<svg
   id="Layer_1"
   style="enable-background:new 0 0 128 128;"
   version="1.1"
   viewBox="0 0 128 128"
   xml:space="preserve"
   sodipodi:docname="añadir.svg"
   inkscape:version="1.1 (c68e22c387, 2021-05-23)"
   xmlns:inkscape="http://www.inkscape.org/namespaces/inkscape"
   xmlns:sodipodi="http://sodipodi.sourceforge.net/DTD/sodipodi-0.dtd"
   xmlns="http://www.w3.org/2000/svg"
   xmlns:svg="http://www.w3.org/2000/svg"><defs
     id="defs11" /><sodipodi:namedview
     id="namedview9"
     pagecolor="#ffffff"
     bordercolor="#666666"
     borderopacity="1.0"
     inkscape:pageshadow="2"
     inkscape:pageopacity="0.0"
     inkscape:pagecheckerboard="0"
     showgrid="false"
     inkscape:zoom="6.5"
     inkscape:cx="63.923077"
     inkscape:cy="64.076923"
     inkscape:window-width="1920"
     inkscape:window-height="1017"
     inkscape:window-x="-8"
     inkscape:window-y="-8"
     inkscape:window-maximized="1"
     inkscape:current-layer="Layer_1" /><style
     type="text/css"
     id="style2">
	.st0{fill:#31AF91;}
	.st1{fill:#FFFFFF;}
</style><circle
     class="st0"
     cx="64"
     cy="64"
     id="circle4"
     r="64"
     style="fill:#2ecc71;fill-opacity:1" /><path
     class="st1"
     d="M103,57H71V25c0-0.6-0.4-1-1-1H58c-0.6,0-1,0.4-1,1v32H25c-0.6,0-1,0.4-1,1v12c0,0.6,0.4,1,1,1h32v32  c0,0.6,0.4,1,1,1h12c0.6,0,1-0.4,1-1V71h32c0.6,0,1-0.4,1-1V58C104,57.4,103.6,57,103,57z"
     id="path6" /></svg>
