<?xml version="1.0" encoding="UTF-8" standalone="no"?>
<svg
   id="Layer_1"
   style="enable-background:new 0 0 512 512;"
   version="1.1"
   viewBox="0 0 512 512"
   xml:space="preserve"
   sodipodi:docname="MenuIconblanco.svg"
   inkscape:version="1.1 (c68e22c387, 2021-05-23)"
   xmlns:inkscape="http://www.inkscape.org/namespaces/inkscape"
   xmlns:sodipodi="http://sodipodi.sourceforge.net/DTD/sodipodi-0.dtd"
   xmlns="http://www.w3.org/2000/svg"
   xmlns:svg="http://www.w3.org/2000/svg"><defs
     id="defs21" /><sodipodi:namedview
     id="namedview19"
     pagecolor="#ffffff"
     bordercolor="#666666"
     borderopacity="1.0"
     inkscape:pageshadow="2"
     inkscape:pageopacity="0.0"
     inkscape:pagecheckerboard="0"
     showgrid="false"
     inkscape:zoom="1.625"
     inkscape:cx="255.69231"
     inkscape:cy="256.30769"
     inkscape:window-width="1920"
     inkscape:window-height="1017"
     inkscape:window-x="-8"
     inkscape:window-y="-8"
     inkscape:window-maximized="1"
     inkscape:current-layer="g16" /><style
     type="text/css"
     id="style2">
	.st0{fill:#231F20;}
</style><g
     id="g16"><g
       id="g6"><path
         class="st0"
         d="M381,190.9H131c-11,0-20-9-20-20s9-20,20-20h250c11,0,20,9,20,20S392,190.9,381,190.9z"
         id="path4"
         style="fill:#ffffff;fill-opacity:1" /></g><g
       id="g10"><path
         class="st0"
         d="M381,361.1H131c-11,0-20-9-20-20s9-20,20-20h250c11,0,20,9,20,20S392,361.1,381,361.1z"
         id="path8"
         style="fill:#ffffff;fill-opacity:1" /></g><g
       id="g14"><path
         class="st0"
         d="M381,276H131c-11,0-20-9-20-20s9-20,20-20h250c11,0,20,9,20,20S392,276,381,276z"
         id="path12"
         style="fill:#ffffff;fill-opacity:1" /></g></g></svg>
