<?xml version="1.0" encoding="UTF-8" standalone="no"?>
<!-- Created with Inkscape (http://www.inkscape.org/) -->

<svg
   width="210mm"
   height="297mm"
   viewBox="0 0 210 297"
   version="1.1"
   id="svg5"
   inkscape:version="1.1 (c68e22c387, 2021-05-23)"
   sodipodi:docname="dibujo.svg"
   xmlns:inkscape="http://www.inkscape.org/namespaces/inkscape"
   xmlns:sodipodi="http://sodipodi.sourceforge.net/DTD/sodipodi-0.dtd"
   xmlns="http://www.w3.org/2000/svg"
   xmlns:svg="http://www.w3.org/2000/svg">
  <sodipodi:namedview
     id="namedview7"
     pagecolor="#ffffff"
     bordercolor="#666666"
     borderopacity="1.0"
     inkscape:pageshadow="2"
     inkscape:pageopacity="0.0"
     inkscape:pagecheckerboard="0"
     inkscape:document-units="mm"
     showgrid="false"
     inkscape:zoom="0.74118967"
     inkscape:cx="131.54528"
     inkscape:cy="561.93443"
     inkscape:window-width="1920"
     inkscape:window-height="1017"
     inkscape:window-x="-8"
     inkscape:window-y="-8"
     inkscape:window-maximized="1"
     inkscape:current-layer="layer1" />
  <defs
     id="defs2" />
  <g
     inkscape:label="Capa 1"
     inkscape:groupmode="layer"
     id="layer1">
    <path
       id="rect31"
       style="fill:none;fill-rule:evenodd;stroke:#d91717;stroke-width:2.265;stroke-miterlimit:4;stroke-dasharray:none;stroke-opacity:1"
       d="m -134.57553,65.682849 h -0.4315 v 47.477001 h 58.186625 V 65.682849 h -0.428913 a 28.736181,17.669994 0 0 1 9.98e-4,0.007 28.736181,17.669994 0 0 1 0.03927,0.41393 28.736181,17.669994 0 0 1 0.02377,0.41393 28.736181,17.669994 0 0 1 0.0078,0.41444 28.736181,17.669994 0 0 1 -0.06718,1.20561 28.736181,17.669994 0 0 1 -0.200506,1.20043 28.736181,17.669994 0 0 1 -0.333311,1.18856 28.736181,17.669994 0 0 1 -0.464571,1.17253 28.736181,17.669994 0 0 1 -0.593763,1.1498 28.736181,17.669994 0 0 1 -0.719855,1.1224 28.736181,17.669994 0 0 1 -0.842324,1.08985 28.736181,17.669994 0 0 1 -0.9617,1.05162 28.736181,17.669994 0 0 1 -1.076418,1.00871 28.736181,17.669994 0 0 1 -1.185458,0.9617 28.736181,17.669994 0 0 1 -1.289844,0.9095 28.736181,17.669994 0 0 1 -1.387512,0.85266 28.736181,17.669994 0 0 1 -1.478463,0.79323 28.736181,17.669994 0 0 1 -1.56373,0.72915 28.736181,17.669994 0 0 1 -1.640727,0.66145 28.736181,17.669994 0 0 1 -1.710491,0.59169 28.736181,17.669994 0 0 1 -1.771984,0.5178 28.736181,17.669994 0 0 1 -1.825213,0.44287 28.736181,17.669994 0 0 1 -1.870169,0.36483 28.736181,17.669994 0 0 1 -1.906341,0.28577 28.736181,17.669994 0 0 1 -1.93373,0.20516 28.736181,17.669994 0 0 1 -1.95182,0.12298 28.736181,17.669994 0 0 1 -1.96112,0.0413 28.736181,17.669994 0 0 1 -1.96112,-0.0413 28.736181,17.669994 0 0 1 -1.95182,-0.12298 28.736181,17.669994 0 0 1 -1.93373,-0.20516 28.736181,17.669994 0 0 1 -1.90634,-0.28577 28.736181,17.669994 0 0 1 -1.87017,-0.36483 28.736181,17.669994 0 0 1 -1.82521,-0.44287 28.736181,17.669994 0 0 1 -1.77198,-0.5178 28.736181,17.669994 0 0 1 -1.7105,-0.59169 28.736181,17.669994 0 0 1 -1.64073,-0.66145 28.736181,17.669994 0 0 1 -1.5632,-0.72915 28.736181,17.669994 0 0 1 -1.47899,-0.79323 28.736181,17.669994 0 0 1 -1.38751,-0.85266 28.736181,17.669994 0 0 1 -1.28984,-0.9095 28.736181,17.669994 0 0 1 -1.18546,-0.9617 28.736181,17.669994 0 0 1 -1.07591,-1.00871 28.736181,17.669994 0 0 1 -0.96169,-1.05162 28.736181,17.669994 0 0 1 -0.84285,-1.08985 28.736181,17.669994 0 0 1 -0.71984,-1.1224 28.736181,17.669994 0 0 1 -0.59376,-1.1498 28.736181,17.669994 0 0 1 -0.46458,-1.17253 28.736181,17.669994 0 0 1 -0.33331,-1.18856 28.736181,17.669994 0 0 1 -0.20051,-1.20043 28.736181,17.669994 0 0 1 -0.0672,-1.20561 28.736181,17.669994 0 0 1 0.0672,-1.20612 28.736181,17.669994 0 0 1 0.007,-0.0434 z" />
    <path
       id="path1063"
       style="fill:none;fill-rule:evenodd;stroke:#d91717;stroke-width:2.265;stroke-miterlimit:4;stroke-dasharray:none;stroke-opacity:1"
       d="m -134.14685,65.682822 a 28.736181,17.669994 0 0 0 -0.007,0.0434 28.736181,17.669994 0 0 0 -0.0672,1.206125 28.736181,17.669994 0 0 0 0.0672,1.205606 28.736181,17.669994 0 0 0 0.20051,1.200438 28.736181,17.669994 0 0 0 0.33331,1.188551 28.736181,17.669994 0 0 0 0.46458,1.172533 28.736181,17.669994 0 0 0 0.59376,1.149798 28.736181,17.669994 0 0 0 0.71984,1.122405 28.736181,17.669994 0 0 0 0.84285,1.089853 28.736181,17.669994 0 0 0 0.96169,1.051611 28.736181,17.669994 0 0 0 1.07591,1.00872 28.736181,17.669994 0 0 0 1.18546,0.961692 28.736181,17.669994 0 0 0 1.28984,0.909501 28.736181,17.669994 0 0 0 1.38751,0.85266 28.736181,17.669994 0 0 0 1.47899,0.793227 28.736181,17.669994 0 0 0 1.5632,0.729151 28.736181,17.669994 0 0 0 1.64073,0.661456 28.736181,17.669994 0 0 0 1.7105,0.591693 28.736181,17.669994 0 0 0 1.77198,0.517795 28.736181,17.669994 0 0 0 1.8252,0.442866 28.736181,17.669994 0 0 0 1.87018,0.364835 28.736181,17.669994 0 0 0 1.90634,0.28577 28.736181,17.669994 0 0 0 1.93374,0.205155 28.736181,17.669994 0 0 0 1.95182,0.122988 28.736181,17.669994 0 0 0 1.96112,0.04134 28.736181,17.669994 0 0 0 1.96112,-0.04134 28.736181,17.669994 0 0 0 1.95182,-0.122988 28.736181,17.669994 0 0 0 1.933728,-0.205155 28.736181,17.669994 0 0 0 1.906345,-0.28577 28.736181,17.669994 0 0 0 1.87017,-0.364835 28.736181,17.669994 0 0 0 1.825213,-0.442866 28.736181,17.669994 0 0 0 1.771984,-0.517795 28.736181,17.669994 0 0 0 1.710491,-0.591693 28.736181,17.669994 0 0 0 1.640727,-0.661456 28.736181,17.669994 0 0 0 1.563729,-0.729151 28.736181,17.669994 0 0 0 1.478464,-0.793227 28.736181,17.669994 0 0 0 1.387512,-0.85266 28.736181,17.669994 0 0 0 1.289843,-0.909501 28.736181,17.669994 0 0 0 1.185458,-0.961692 28.736181,17.669994 0 0 0 1.076418,-1.00872 28.736181,17.669994 0 0 0 0.9617,-1.051611 28.736181,17.669994 0 0 0 0.842325,-1.089853 28.736181,17.669994 0 0 0 0.719855,-1.122405 28.736181,17.669994 0 0 0 0.593762,-1.149798 28.736181,17.669994 0 0 0 0.464571,-1.172533 28.736181,17.669994 0 0 0 0.333312,-1.188551 28.736181,17.669994 0 0 0 0.200506,-1.200438 28.736181,17.669994 0 0 0 0.06717,-1.205606 28.736181,17.669994 0 0 0 -0.0078,-0.414444 28.736181,17.669994 0 0 0 -0.02377,-0.413925 28.736181,17.669994 0 0 0 -0.03927,-0.413929 28.736181,17.669994 0 0 0 -9.98e-4,-0.0072 z" />
  </g>
</svg>
