<?xml version="1.0" encoding="utf-8"?>
<!-- Generator: Adobe Illustrator 24.2.0, SVG Export Plug-In . SVG Version: 6.00 Build 0)  -->
<svg version="1.1" id="Capa_1" xmlns="http://www.w3.org/2000/svg" xmlns:xlink="http://www.w3.org/1999/xlink" x="0px" y="0px"
	 viewBox="0 0 1080 1080" style="enable-background:new 0 0 1080 1080;" xml:space="preserve">
<style type="text/css">
	.st0{fill:#4C1051;}
	.st1{fill:#009FE3;}
</style>
<g>
	<g>
		<path class="st0" d="M592.3,824.5c-1,27.4-23.5,49.3-51.2,49.3c-21.4,0-39.8-13.2-47.4-31.9L592.3,824.5z M456.3,762.4l114.9-20.5
			c8.5-1.5,14.1-9.6,12.6-18.1c-1.5-8.5-9.6-14.1-18.1-12.6l-114.9,20.5c-8.5,1.5-14.1,9.6-12.6,18.1c1.3,7.5,7.9,12.8,15.3,12.8
			C454.5,762.6,455.4,762.5,456.3,762.4z M456.3,821.2l169.4-29.9c8.5-1.5,14.1-9.6,12.6-18c-1.5-8.5-9.6-14.1-18-12.6l-169.4,29.9
			c-8.5,1.5-14.1,9.6-12.6,18c1.3,7.6,7.9,12.9,15.3,12.9C454.5,821.4,455.4,821.3,456.3,821.2z"/>
		<path class="st1" d="M739.8,430.1c0.2-3.9,0.4-7.8,0.4-11.6c0-50.6-19.2-97-50.8-132.5c3.3-7.2,5.2-15.1,5.2-23.5
			c0-31-25.2-56.3-56.3-56.3c-16.9,0-32.1,7.5-42.4,19.4c-19.1-5.9-39.5-9.2-60.5-9.3c-0.8,0-1.5,0-2.6,0
			c-58.2,0.4-110.8,24.8-148.1,63.4c-5.9-2.1-12.2-3.3-18.8-3.3c-31,0-56.3,25.2-56.3,56.3c0,18.5,9,34.9,22.8,45.1
			c-2.8,13.2-4.2,26.8-4.2,40.7c0,27.5,5.6,56.3,15.8,84c-11.5,10.3-18.8,25.2-18.8,41.9c0,31,25.2,56.3,56.3,56.3
			c6,0,11.7-1,17.1-2.7c5.8,9.8,13.7,23.3,21.9,37.3c5,8.6,15.9,33.5,18.7,52.2c1.2,7.7,7.8,13.3,15.4,13.3c0.8,0,1.5-0.1,2.3-0.2
			c8.5-1.3,14.4-9.2,13.1-17.7c-3.7-24.7-16.8-53.3-22.5-63.2c-6.3-10.9-12.5-21.5-17.7-30.3l183.2,102.8v17.2
			c0,8.6,7,15.6,15.6,15.6c8.6,0,15.6-7,15.6-15.6v-26.3c0-5.6-3-10.8-8-13.6L436,557.3c0.6-2.6,1.1-5.2,1.3-7.8l226.9-43.7
			c3.7,7.2,9,13.6,15.3,18.6c-7.4,13.8-16.1,27.4-26,40.4c-0.9,1.2-2,2.5-3.1,4c-8.3,10.6-20.8,26.6-27.5,46.2
			c-2.8,8.1,1.6,17,9.7,19.8c8.1,2.8,17-1.6,19.8-9.7c5-14.7,15.2-27.6,22.6-37.1c1.2-1.5,2.3-3,3.3-4.3
			c11.6-15.2,21.7-31.2,30.2-47.4c1.9,0.2,3.8,0.3,5.8,0.3c31,0,56.3-25.2,56.3-56.3C770.5,458.3,758,439.4,739.8,430.1z
			 M638.3,237.4c13.8,0,25.1,11.3,25.1,25.1c0,13.8-11.3,25.1-25.1,25.1c-13.8,0-25.1-11.3-25.1-25.1
			C613.2,248.6,624.5,237.4,638.3,237.4z M533,247.4l1.3,0l1.1,0c16.4,0.1,32.3,2.5,47.4,6.8c-0.4,2.5-0.6,5.1-0.6,7.8l-167.7,42.4
			c-1.3-2.2-2.7-4.2-4.2-6.2C441.6,267.1,485,247.7,533,247.4z M340.7,332.7c0-13.8,11.3-25.1,25.1-25.1c13.8,0,25.1,11.3,25.1,25.1
			c0,13.8-11.3,25.1-25.1,25.1C351.9,357.8,340.7,346.5,340.7,332.7z M381.3,569.5c-13.8,0-25.1-11.3-25.1-25.1
			c0-13.8,11.3-25.1,25.1-25.1c13.8,0,25.1,11.3,25.1,25.1C406.4,558.2,395.1,569.5,381.3,569.5z M658.2,475.2l-226.8,43.7
			c-9.3-18.2-28.2-30.8-50.1-30.8c-3.1,0-6.2,0.3-9.2,0.8c-8.3-23.4-12.8-47.5-12.8-70.5c0-10.1,1-20.1,2.7-29.7
			c1.3,0.1,2.5,0.2,3.8,0.2c17.6,0,33.4-8.2,43.7-20.9l248.9,105.3C658.3,473.9,658.3,474.5,658.2,475.2z M670.6,444.6l-249-105.3
			c0.2-1.6,0.3-3.1,0.3-4.7L590.5,292c9.9,16,27.6,26.7,47.8,26.7c11.2,0,21.7-3.4,30.5-9.1c25.1,29.6,40.2,67.6,40.2,108.8
			c0,1.9-0.1,3.8-0.2,5.7C693.5,425.6,679.9,433.3,670.6,444.6z M714.2,505.2c-13.8,0-25.1-11.3-25.1-25.1s11.3-25.1,25.1-25.1
			c13.8,0,25.1,11.3,25.1,25.1S728.1,505.2,714.2,505.2z"/>
	</g>
</g>
</svg>
